HIERARCHY
ROOT Hips
{
 OFFSET 0.000000 0.000000 0.000000
 CHANNELS 6 Xposition Yposition Zposition Yrotation Xrotation Zrotation
 JOINT Chest
 {
  OFFSET 0.000000 9.585900 0.002600
  CHANNELS 3 Yrotation Xrotation Zrotation
  JOINT Chest2
  {
   OFFSET 0.000000 9.601200 -0.005300
   CHANNELS 3 Yrotation Xrotation Zrotation
   JOINT Chest3
   {
    OFFSET 0.000000 9.561800 0.000000
    CHANNELS 3 Yrotation Xrotation Zrotation
    JOINT Chest4
    {
     OFFSET 0.000000 9.552100 0.000000
     CHANNELS 3 Yrotation Xrotation Zrotation
     JOINT Neck
     {
      OFFSET 0.000000 14.453000 0.000000
      CHANNELS 3 Yrotation Xrotation Zrotation
      JOINT Head
      {
       OFFSET 0.000000 8.936500 -0.011300
       CHANNELS 3 Yrotation Xrotation Zrotation
       End Site
       {
        OFFSET 0.000000 17.073600 -0.006000
       }
      }
     }
     JOINT RightCollar
     {
      OFFSET -2.921100 9.558500 0.000000
      CHANNELS 3 Yrotation Xrotation Zrotation
      JOINT RightShoulder
      {
       OFFSET -13.519700 0.000000 0.000000
       CHANNELS 3 Yrotation Xrotation Zrotation
       JOINT RightElbow
       {
        OFFSET 0.000000 -29.696600 0.000000
        CHANNELS 3 Yrotation Xrotation Zrotation
        JOINT RightWrist
        {
         OFFSET 0.000000 -24.004700 0.000000
         CHANNELS 3 Yrotation Xrotation Zrotation
         End Site
         {
          OFFSET 0.000000 -17.728500 0.000000
         }
        }
       }
      }
     }
     JOINT LeftCollar
     {
      OFFSET 2.921100 9.558500 0.000000
      CHANNELS 3 Yrotation Xrotation Zrotation
      JOINT LeftShoulder
      {
       OFFSET 13.519700 0.000000 0.000000
       CHANNELS 3 Yrotation Xrotation Zrotation
       JOINT LeftElbow
       {
        OFFSET 0.000000 -29.696600 0.000000
        CHANNELS 3 Yrotation Xrotation Zrotation
        JOINT LeftWrist
        {
         OFFSET 0.000000 -24.004700 0.000000
         CHANNELS 3 Yrotation Xrotation Zrotation
         End Site
         {
          OFFSET 0.000000 -17.728500 0.000000
         }
        }
       }
      }
     }
    }
   }
  }
 }
 JOINT RightHip
 {
  OFFSET -7.771700 -0.012900 -0.001300
  CHANNELS 3 Yrotation Xrotation Zrotation
  JOINT RightKnee
  {
   OFFSET 0.000000 -40.869800 0.001200
   CHANNELS 3 Yrotation Xrotation Zrotation
   JOINT RightAnkle
   {
    OFFSET 0.000000 -39.717900 0.002100
    CHANNELS 3 Yrotation Xrotation Zrotation
    JOINT RightToe
    {
     OFFSET 0.000000 -4.965400 11.033500
     CHANNELS 3 Yrotation Xrotation Zrotation
     End Site
     {
      OFFSET 0.000000 -1.423100 5.872300
     }
    }
   }
  }
 }
 JOINT LeftHip
 {
  OFFSET 7.771700 -0.012900 -0.001300
  CHANNELS 3 Yrotation Xrotation Zrotation
  JOINT LeftKnee
  {
   OFFSET 0.000000 -40.869800 0.001200
   CHANNELS 3 Yrotation Xrotation Zrotation
   JOINT LeftAnkle
   {
    OFFSET 0.000000 -39.717900 0.002100
    CHANNELS 3 Yrotation Xrotation Zrotation
    JOINT LeftToe
    {
     OFFSET 0.000000 -4.965400 11.033500
     CHANNELS 3 Yrotation Xrotation Zrotation
     End Site
     {
      OFFSET 0.000000 -1.423100 5.872300
     }
    }
   }
  }
 }
}
MOTION
Frames: 11
Frame Time: 0.008333
0.000000 85.388000 0.000000 0.000000 -5.767877 0.000000 0.000000 11.653817 0.000000 0.000000 -5.885947 0.000000 0.000000 -0.000000 0.000000 0.000000 -0.000000 0.000000 0.000000 12.528835 0.000000 0.000000 0.711642 0.000000 0.000000 -0.000000 0.000000 0.000000 0.000000 -90.000000 0.000000 -2.309062 0.000000 0.000000 2.309062 0.000000 0.000000 -0.000000 0.000000 0.000000 -0.000000 90.000000 0.000000 -2.309062 0.000000 0.000000 2.309062 0.000000 0.000000 8.520406 0.000000 0.000000 1.905762 0.000000 -0.000000 -4.658285 0.000000 0.000000 -0.000000 0.000000 0.000000 8.520406 0.000000 0.000000 1.905762 0.000000 -0.000000 -4.658285 0.000000 0.000000 -0.000000 0.000000
-44.688412 55.435291 44.156632 -167.963053 -30.277952 -10.831182 -3.583880 15.389587 6.092155 -2.277728 8.726898 1.728211 -2.825977 10.925160 2.102934 -2.264354 8.720938 1.734633 2.133897 18.853346 -1.546378 2.610774 -5.791172 -2.168560 3.531630 -3.254260 -4.340098 -0.806256 -14.042367 3.025702 67.767479 -40.738477 -53.113597 9.061150 4.232817 -23.714199 -10.535338 -0.519926 -4.121311 -6.014741 -14.492644 1.518546 -57.632118 -39.215704 65.236940 -2.744929 -15.957248 0.476637 -24.079623 -28.830249 3.196830 91.005170 88.814734 89.222062 1.181521 -26.020851 -2.706302 -0.099387 0.659372 -0.034678 -16.278016 -45.636839 5.165714 170.812542 72.128589 169.301593 0.544384 -22.650361 -0.536698 -1.624440 -4.277598 -0.722084
-44.690470 55.444320 44.155174 -167.964585 -30.276347 -10.843872 -3.584530 15.394354 6.101565 -2.286954 8.734221 1.720673 -2.819437 10.919848 2.104744 -2.282290 8.728028 1.723005 2.151580 18.841541 -1.558659 2.616407 -5.799127 -2.186779 3.565976 -3.290766 -4.359907 -0.787029 -14.026218 3.030716 67.756123 -40.726104 -53.014097 9.038220 4.237946 -23.796847 -10.513261 -0.539755 -4.108174 -6.005212 -14.473998 1.509346 -57.641764 -39.208524 65.249033 -2.751480 -15.953885 0.473986 -24.069521 -28.826769 3.203654 90.921097 88.813751 89.149997 1.180891 -26.025298 -2.707942 -0.099264 0.662977 -0.031851 -16.291589 -45.639803 5.182947 170.761829 72.115445 169.249697 0.543265 -22.641071 -0.535784 -1.633320 -4.292855 -0.724447
-44.693099 55.454807 44.153096 -167.966170 -30.276924 -10.856596 -3.583459 15.402128 6.112247 -2.286542 8.733228 1.720034 -2.822889 10.921977 2.101232 -2.283862 8.728279 1.721043 2.148355 18.832433 -1.578288 2.623336 -5.802664 -2.202598 3.589323 -3.348104 -4.418725 -0.755379 -13.986443 3.055896 67.698043 -40.737186 -52.950784 9.037712 4.226205 -23.799645 -10.505457 -0.550571 -4.102967 -6.007170 -14.457528 1.502054 -57.617629 -39.184209 65.244124 -2.748520 -15.974878 0.474369 -24.065210 -28.821394 3.214851 90.887916 88.818697 89.119349 1.178667 -26.028885 -2.704962 -0.099030 0.666208 -0.028828 -16.308549 -45.638811 5.202353 170.719151 72.102659 169.204667 0.535339 -22.635317 -0.535480 -1.626257 -4.306722 -0.724166
-44.697558 55.465571 44.151424 -167.965338 -30.273764 -10.860547 -3.590183 15.413836 6.110603 -2.279549 8.721486 1.723539 -2.826483 10.925777 2.097665 -2.286912 8.729795 1.718312 2.145794 18.827154 -1.594723 2.631044 -5.808039 -2.217789 3.606603 -3.377459 -4.442677 -0.761169 -13.964730 3.078348 67.697182 -40.734301 -52.919377 9.029530 4.222589 -23.807570 -10.499653 -0.561166 -4.097720 -6.002313 -14.448689 1.498784 -57.615326 -39.179062 65.243090 -2.749716 -15.974053 0.473769 -24.058729 -28.825148 3.226600 91.044191 88.831106 89.265381 1.174133 -26.033325 -2.686603 -0.101939 0.666217 -0.029805 -16.311852 -45.641082 5.203498 170.681156 72.095506 169.168866 0.525145 -22.639861 -0.536241 -1.621290 -4.308485 -0.721908
-44.703297 55.475636 44.151247 -167.969692 -30.260848 -10.852860 -3.594396 15.406258 6.102084 -2.279421 8.723277 1.722168 -2.822102 10.920586 2.100020 -2.295270 8.732940 1.713610 2.140388 18.825028 -1.627547 2.643852 -5.814248 -2.216299 3.621091 -3.393387 -4.451587 -0.742786 -13.959897 3.075511 67.668136 -40.739058 -52.899028 9.031183 4.212243 -23.791858 -10.497329 -0.575396 -4.093040 -5.992059 -14.437058 1.496165 -57.609050 -39.175810 65.237790 -2.751430 -15.979397 0.475243 -24.050563 -28.846340 3.224268 91.400460 88.829539 89.619894 1.169500 -26.036494 -2.678476 -0.100488 0.663341 -0.033692 -16.297898 -45.651080 5.195120 170.666661 72.096295 169.159526 0.505731 -22.661532 -0.534065 -1.604242 -4.291560 -0.715368
-44.708418 55.486562 44.149831 -167.967852 -30.254732 -10.853327 -3.601344 15.404831 6.097990 -2.280169 8.725489 1.721065 -2.823859 10.920559 2.098158 -2.298018 8.731210 1.712034 2.145033 18.821823 -1.640793 2.651922 -5.817267 -2.231479 3.637576 -3.407373 -4.459223 -0.706296 -13.960630 3.055587 67.623199 -40.741271 -52.843552 9.027788 4.205643 -23.804419 -10.489963 -0.588410 -4.086367 -5.984766 -14.425430 1.490864 -57.602458 -39.178546 65.219896 -2.757123 -15.973417 0.484254 -24.052244 -28.854089 3.230605 91.588919 88.839746 89.797190 1.165156 -26.044457 -2.670615 -0.101174 0.667583 -0.029442 -16.297756 -45.656694 5.192513 170.649297 72.091876 169.142686 0.502666 -22.666682 -0.538482 -1.602556 -4.290773 -0.708892
-44.712401 55.497368 44.148576 -167.969216 -30.247205 -10.858150 -3.603587 15.400019 6.100835 -2.284236 8.726695 1.718570 -2.831657 10.923481 2.091743 -2.291065 8.728541 1.714958 2.152695 18.819688 -1.646368 2.656889 -5.819822 -2.246090 3.657750 -3.429400 -4.478294 -0.710477 -13.941387 3.069939 67.654256 -40.709998 -52.801620 9.001883 4.211468 -23.841845 -10.488873 -0.597527 -4.081371 -5.966451 -14.415214 1.479187 -57.594851 -39.181533 65.207381 -2.756668 -15.981931 0.480456 -24.044033 -28.860154 3.240994 91.634422 88.856215 89.841689 1.164007 -26.054251 -2.668762 -0.101575 0.669408 -0.025376 -16.305494 -45.664091 5.200266 170.614761 72.083709 169.110252 0.493280 -22.666919 -0.542552 -1.597556 -4.295045 -0.705767
-44.715970 55.508464 44.146528 -167.967259 -30.244700 -10.867115 -3.606501 15.399129 6.107090 -2.285420 8.729609 1.715771 -2.828501 10.921466 2.094029 -2.293859 8.728215 1.714462 2.154410 18.819105 -1.653753 2.661870 -5.825659 -2.266884 3.671091 -3.444500 -4.497058 -0.713165 -13.927011 3.082438 67.656157 -40.702364 -52.789848 9.019291 4.210301 -23.837202 -10.486114 -0.611741 -4.078807 -5.958896 -14.402299 1.471145 -57.585721 -39.181856 65.191355 -2.759068 -15.983999 0.486665 -24.040393 -28.860663 3.254997 91.744881 88.866767 89.943934 1.161047 -26.056042 -2.650860 -0.103749 0.669209 -0.026129 -16.316809 -45.667439 5.212320 170.583341 72.073519 169.078071 0.484214 -22.659496 -0.540707 -1.595678 -4.307230 -0.706154
-44.719456 55.519181 44.144655 -167.964364 -30.241084 -10.875391 -3.608988 15.396489 6.113636 -2.290606 8.728988 1.714182 -2.830024 10.921044 2.093495 -2.290601 8.728953 1.714174 2.153218 18.815907 -1.667928 2.668349 -5.831490 -2.288074 3.680395 -3.462990 -4.514349 -0.701881 -13.906579 3.089778 67.653376 -40.693733 -52.782385 9.038994 4.212785 -23.837671 -10.478416 -0.618196 -4.074031 -5.955133 -14.396667 1.462226 -57.560989 -39.187506 65.155011 -2.776686 -15.996862 0.504216 -24.034693 -28.862017 3.256405 91.802089 88.862302 90.006654 1.159850 -26.060595 -2.653138 -0.103066 0.669161 -0.024082 -16.335137 -45.672957 5.226188 170.560008 72.062874 169.048993 0.483296 -22.647342 -0.537313 -1.599829 -4.322661 -0.709834
-44.724732 55.529184 44.143172 -167.957932 -30.235870 -10.872379 -3.621990 15.389853 6.104921 -2.300988 8.729580 1.707365 -2.834162 10.921011 2.092129 -2.291865 8.728970 1.713047 2.156499 18.807119 -1.693289 2.683908 -5.831006 -2.290195 3.710449 -3.470808 -4.532438 -0.700110 -13.895173 3.096630 67.661714 -40.675789 -52.763871 9.024659 4.217988 -23.860811 -10.454124 -0.622823 -4.067391 -5.949888 -14.389033 1.455642 -57.558785 -39.191258 65.142675 -2.779650 -15.996623 0.507672 -24.036373 -28.870103 3.253645 92.023819 88.874083 90.218231 1.161006 -26.069366 -2.650113 -0.103839 0.668406 -0.025538 -16.349616 -45.675486 5.230475 170.567604 72.062390 169.044649 0.470514 -22.656026 -0.532590 -1.588050 -4.315935 -0.706878
